<svg width="22" height="20" viewBox="0 0 22 20" fill="none" xmlns="http://www.w3.org/2000/svg">
<g filter="url(#filter0_d)">
<path d="M19.9992 7.54622C19.9992 3.37819 15.9701 0 10.9996 0C6.02917 0 2 3.37819 2 7.54622C2 11.3118 5.29114 14.4334 9.59332 14.9994V9.72708H7.30872V7.54559H9.59332V5.88354C9.59332 3.99195 10.9374 2.94743 12.9925 2.94743C13.9772 2.94743 15.007 3.09458 15.007 3.09458V4.95158H13.873C12.7554 4.95158 12.4067 5.53327 12.4067 6.13005V7.54622H14.9028L14.5038 9.72771H12.4067V15C16.7089 14.434 20 11.3124 20 7.54622H19.9992Z" fill="#464C41"/>
</g>
<defs>
<filter id="filter0_d" x="0" y="0" width="22" height="21" filterUnits="userSpaceOnUse" color-interpolation-filters="sRGB">
<feFlood flood-opacity="0" result="BackgroundImageFix"/>
<feColorMatrix in="SourceAlpha" type="matrix" values="0 0 0 0 0 0 0 0 0 0 0 0 0 0 0 0 0 0 127 0"/>
<feOffset dy="4"/>
<feGaussianBlur stdDeviation="1"/>
<feColorMatrix type="matrix" values="0 0 0 0 0 0 0 0 0 0 0 0 0 0 0 0 0 0 0.3 0"/>
<feBlend mode="normal" in2="BackgroundImageFix" result="effect1_dropShadow"/>
<feBlend mode="normal" in="SourceGraphic" in2="effect1_dropShadow" result="shape"/>
</filter>
</defs>
</svg>
