<svg width="23" height="20" viewBox="0 0 23 20" fill="none" xmlns="http://www.w3.org/2000/svg">
<g filter="url(#filter0_d)">
<path d="M11.5 0C8.91917 0 8.59696 0.009375 7.58363 0.045C6.57188 0.0825 5.88313 0.208125 5.2775 0.39375C4.65287 0.585 4.12246 0.841875 3.59442 1.25875C3.06638 1.67562 2.74021 2.09375 2.49875 2.5875C2.26362 3.06562 2.10371 3.60938 2.057 4.40812C2.0095 5.20813 2 5.4625 2 7.5C2 9.5375 2.01187 9.79187 2.057 10.5919C2.1045 11.39 2.26362 11.9344 2.49875 12.4125C2.73727 12.913 3.11118 13.3665 3.59442 13.7413C4.06884 14.123 4.64329 14.4183 5.2775 14.6063C5.88392 14.7913 6.57267 14.9181 7.58363 14.955C8.59696 14.9925 8.91917 15 11.5 15C14.0808 15 14.403 14.9906 15.4164 14.955C16.4273 14.9175 17.1169 14.7913 17.7225 14.6063C18.3564 14.4177 18.9307 14.1225 19.4056 13.7413C19.8893 13.3668 20.2633 12.9133 20.5013 12.4125C20.7356 11.9344 20.8963 11.39 20.943 10.5919C20.9905 9.79187 21 9.5375 21 7.5C21 5.4625 20.9881 5.20813 20.943 4.40812C20.8955 3.61 20.7356 3.065 20.5013 2.5875C20.2626 2.08701 19.8887 1.63358 19.4056 1.25875C18.9315 0.876651 18.357 0.581369 17.7225 0.39375C17.1169 0.208125 16.4273 0.081875 15.4164 0.045C14.403 0.0075 14.0808 0 11.5 0ZM11.5 1.35C14.0357 1.35 14.3381 1.36 15.3396 1.39437C16.2658 1.42875 16.7685 1.55 17.1026 1.65375C17.5475 1.78937 17.8626 1.95188 18.1967 2.21375C18.5284 2.47625 18.7342 2.72563 18.906 3.07687C19.0359 3.34062 19.191 3.7375 19.233 4.46875C19.2781 5.26 19.2884 5.4975 19.2884 7.5C19.2884 9.5025 19.2765 9.74063 19.2298 10.5312C19.1815 11.2625 19.0272 11.6594 18.8965 11.9231C18.742 12.2486 18.4991 12.5434 18.1848 12.7869C17.8778 13.0352 17.5046 13.2265 17.0923 13.3469C16.7598 13.4494 16.2492 13.5719 15.323 13.605C14.3144 13.6406 14.0175 13.6487 11.4763 13.6487C8.93421 13.6487 8.63733 13.6394 7.62954 13.6025C6.7025 13.5644 6.19187 13.4425 5.85938 13.3394C5.44684 13.2189 5.07379 13.0269 4.76767 12.7775C4.44988 12.5367 4.20615 12.2417 4.05517 11.915C3.92454 11.6525 3.77096 11.2494 3.72267 10.5181C3.68704 9.73063 3.67438 9.4875 3.67438 7.49062C3.67438 5.49312 3.68704 5.24937 3.72267 4.4525C3.77096 3.72125 3.92454 3.31875 4.05517 3.05625C4.22142 2.7 4.43438 2.45625 4.76767 2.19313C5.09938 1.93125 5.40892 1.7625 5.85938 1.63188C6.19187 1.52813 6.69142 1.40625 7.61767 1.36875C8.62704 1.34063 8.92392 1.33125 11.4644 1.33125L11.5 1.35ZM11.5 3.64875C10.8594 3.64875 10.225 3.74837 9.63317 3.94191C9.04132 4.13545 8.50354 4.41913 8.05056 4.77675C7.59757 5.13438 7.23824 5.55894 6.99308 6.02619C6.74793 6.49345 6.62175 6.99425 6.62175 7.5C6.62175 8.00575 6.74793 8.50655 6.99308 8.97381C7.23824 9.44106 7.59757 9.86562 8.05056 10.2232C8.50354 10.5809 9.04132 10.8645 9.63317 11.0581C10.225 11.2516 10.8594 11.3513 11.5 11.3513C12.7938 11.3513 14.0346 10.9455 14.9494 10.2232C15.8643 9.50099 16.3783 8.52141 16.3783 7.5C16.3783 6.47859 15.8643 5.499 14.9494 4.77675C14.0346 4.05451 12.7938 3.64875 11.5 3.64875ZM11.5 10C9.75042 10 8.33333 8.88125 8.33333 7.5C8.33333 6.11875 9.75042 5 11.5 5C13.2496 5 14.6667 6.11875 14.6667 7.5C14.6667 8.88125 13.2496 10 11.5 10ZM17.7114 3.49687C17.7004 3.72977 17.5755 3.95022 17.3629 4.11192C17.1503 4.27361 16.8666 4.36395 16.5714 4.36395C16.2762 4.36395 15.9925 4.27361 15.7799 4.11192C15.5673 3.95022 15.4424 3.72977 15.4314 3.49687C15.4314 3.25818 15.5515 3.02926 15.7653 2.86048C15.9791 2.6917 16.2691 2.59688 16.5714 2.59688C16.8738 2.59688 17.1637 2.6917 17.3775 2.86048C17.5913 3.02926 17.7114 3.25818 17.7114 3.49687Z" fill="#464C41"/>
</g>
<defs>
<filter id="filter0_d" x="0" y="0" width="23" height="21" filterUnits="userSpaceOnUse" color-interpolation-filters="sRGB">
<feFlood flood-opacity="0" result="BackgroundImageFix"/>
<feColorMatrix in="SourceAlpha" type="matrix" values="0 0 0 0 0 0 0 0 0 0 0 0 0 0 0 0 0 0 127 0"/>
<feOffset dy="4"/>
<feGaussianBlur stdDeviation="1"/>
<feColorMatrix type="matrix" values="0 0 0 0 0 0 0 0 0 0 0 0 0 0 0 0 0 0 0.3 0"/>
<feBlend mode="normal" in2="BackgroundImageFix" result="effect1_dropShadow"/>
<feBlend mode="normal" in="SourceGraphic" in2="effect1_dropShadow" result="shape"/>
</filter>
</defs>
</svg>
