<svg width="45" height="50" viewBox="0 0 45 50" fill="none" xmlns="http://www.w3.org/2000/svg">
<path d="M28.134 14.1215C29.8322 14.1229 31.5109 14.4457 33.0607 15.0687C34.6105 15.6918 35.9967 16.6012 37.1288 17.7376L40.673 14.8689C38.4044 12.6038 35.4281 11.0052 32.1323 10.2819C28.8367 9.5585 25.3747 9.74387 22.1981 10.8138C19.0215 11.8837 16.2778 13.7885 14.3252 16.2795C12.3724 18.7707 11.3014 21.7323 11.2517 24.7783C11.2021 27.8241 12.1761 30.8127 14.0468 33.354C15.9175 35.8954 18.5978 37.8714 21.7382 39.0244C24.8785 40.1773 28.333 40.4535 31.6509 39.8171C34.9687 39.1807 37.9959 37.661 40.3374 35.4566L36.8737 32.5034C35.4939 33.7989 33.7781 34.7673 31.8797 35.3219C29.9813 35.8765 27.9594 36.0001 25.9948 35.6817C24.0301 35.3632 22.1841 34.6127 20.6214 33.4971C19.0588 32.3815 17.8284 30.9357 17.0403 29.2888C16.2521 27.6419 15.9307 25.8453 16.1048 24.0597C16.279 22.274 16.9432 20.5549 18.0381 19.0561C19.1331 17.5573 20.6245 16.3254 22.3794 15.4706C24.1341 14.6158 26.0974 14.1647 28.0939 14.1577L28.134 14.1215Z" fill="#414042"/>
<path d="M12.1154 10.5374L8.61871 7.57578C5.88712 9.86002 3.7196 12.5752 2.24048 15.5654C0.761452 18.5555 0 21.7618 0 25C0 28.2382 0.761452 31.4445 2.24048 34.4346C3.7196 37.4248 5.88712 40.14 8.61871 42.4242L12.1154 39.4626C9.83795 37.5715 8.02981 35.3194 6.79569 32.8367C5.56165 30.3542 4.9262 27.6905 4.9262 25C4.9262 22.3096 5.56165 19.6458 6.79569 17.1633C8.02981 14.6806 9.83795 12.4285 12.1154 10.5374Z" fill="#414042"/>
<path d="M45 4.90555C40.2323 1.71229 34.4713 -0.00649669 28.5577 1.84537e-05V4.29994C33.4371 4.29585 38.1917 5.70842 42.1336 8.33335L45 4.90555Z" fill="#414042"/>
<path d="M28.5577 45.758V50C34.0894 50.0054 39.5028 48.5935 44.1346 45.9373L41.4137 42.4242C37.5862 44.6053 33.1202 45.7635 28.5577 45.758Z" fill="#414042"/>
<path d="M28.5577 40.5188C24.8104 40.5166 21.1543 39.5356 18.0845 37.7084C15.0145 35.8812 12.679 33.296 11.3939 30.303L6.9231 32.0684C8.6067 35.7854 11.575 38.9815 15.4369 41.2357C19.2989 43.49 23.8733 44.6967 28.5577 44.6969V40.5188Z" fill="#414042"/>
<path d="M10.832 24.2424C11.1223 20.2572 13.1156 16.5189 16.4074 13.7859C19.6993 11.053 24.0431 9.53016 28.5577 9.52629V5.30304C22.7763 5.30289 17.2162 7.26895 13.028 10.7943C8.8398 14.3198 6.34412 19.1346 6.05768 24.2424H10.832Z" fill="#414042"/>
</svg>
