<svg width="22" height="20" viewBox="0 0 22 20" fill="none" xmlns="http://www.w3.org/2000/svg">
<g filter="url(#filter0_d)">
<path d="M19.9648 1.78662C19.2909 2.09082 18.577 2.29161 17.8461 2.38255C18.6156 1.90831 19.1918 1.16459 19.4683 0.288739C18.7551 0.715498 17.9646 1.02615 17.1231 1.19916C16.568 0.590492 15.8323 0.186795 15.0304 0.0507547C14.2286 -0.0852851 13.4053 0.053945 12.6885 0.446825C11.9717 0.839704 11.4015 1.46425 11.0664 2.22347C10.7313 2.9827 10.6501 3.83412 10.8354 4.64552C7.76801 4.49712 5.04937 2.98693 3.22995 0.703964C2.89906 1.28052 2.72647 1.93812 2.73047 2.60708C2.73047 3.92196 3.38294 5.07766 4.3714 5.75663C3.78557 5.73751 3.21268 5.57512 2.70047 5.28297V5.32987C2.70014 6.20368 2.99466 7.0507 3.53407 7.72723C4.07347 8.40375 4.82454 8.86811 5.65985 9.04152C5.11859 9.19022 4.5517 9.21255 4.00092 9.10688C4.2381 9.85884 4.69826 10.5162 5.31722 10.9872C5.93619 11.4582 6.6831 11.7194 7.45377 11.7343C6.14844 12.7846 4.53674 13.3547 2.87746 13.3529C2.58498 13.3529 2.29324 13.3353 2 13.3014C3.69171 14.412 5.65873 15.0015 7.66751 15C14.4577 15 18.1663 9.23606 18.1663 4.24568C18.1663 4.08497 18.1663 3.92272 18.1551 3.76125C18.8795 3.22672 19.5044 2.5631 20 1.802L19.9648 1.78662Z" fill="#464C41"/>
</g>
<defs>
<filter id="filter0_d" x="0" y="0" width="22" height="21" filterUnits="userSpaceOnUse" color-interpolation-filters="sRGB">
<feFlood flood-opacity="0" result="BackgroundImageFix"/>
<feColorMatrix in="SourceAlpha" type="matrix" values="0 0 0 0 0 0 0 0 0 0 0 0 0 0 0 0 0 0 127 0"/>
<feOffset dy="4"/>
<feGaussianBlur stdDeviation="1"/>
<feColorMatrix type="matrix" values="0 0 0 0 0 0 0 0 0 0 0 0 0 0 0 0 0 0 0.3 0"/>
<feBlend mode="normal" in2="BackgroundImageFix" result="effect1_dropShadow"/>
<feBlend mode="normal" in="SourceGraphic" in2="effect1_dropShadow" result="shape"/>
</filter>
</defs>
</svg>
